<svg xmlns="http://www.w3.org/2000/svg" width="31" height="31">
    <path fill="#464646" fill-opacity="0" fill-rule="evenodd" d="M.75.75h29.5v29.5H.75V.75z"/>
    <path fill="#333" fill-rule="evenodd" d="M24.689 10.727c-.383-1.619-1.097-2.239-2.414-2.463-.755-.119-4.391-.27-7.279-.27s-6.524.151-7.279.27c-1.315.224-2.032.849-2.411 2.463-.13.538-.304 3.513-.304 4.645v.25c0 1.134.174 4.105.304 4.647.379 1.614 1.096 2.236 2.411 2.46.755.12 4.397.268 7.286.268L14.99 23c2.891 0 6.53-.151 7.285-.271 1.317-.224 2.031-.846 2.414-2.46.128-.542.304-3.513.304-4.647v-.25c0-1.132-.176-4.107-.304-4.645zM12.6 18.209v-5.425l4.792 2.649-4.792 2.776z"/>
</svg>
